<svg width="117" height="155" viewBox="0 0 117 155" fill="none" xmlns="http://www.w3.org/2000/svg">
<g clip-path="url(#clip0_137_672)">
<path d="M116.19 58.09C116.19 91.98 58.1 154.91 58.1 154.91C58.1 154.91 0.0100126 91.97 0.0100126 58.09C1.26473e-05 26.02 26.02 0 58.09 0C90.16 0 116.18 26.02 116.18 58.09H116.19Z" fill="#58A709"/>
<path d="M58.09 103.74C84.3567 103.74 105.65 82.4467 105.65 56.18C105.65 29.9133 84.3567 8.62 58.09 8.62C31.8234 8.62 10.53 29.9133 10.53 56.18C10.53 82.4467 31.8234 103.74 58.09 103.74Z" fill="#FAFEF5" fill-opacity="0.980392"/>
<path d="M32 82.0281L36.1754 72.6705C41.3528 76.848 49.6201 79.814 57.5951 79.814C67.6995 79.814 71.9584 76.1796 71.9584 71.3755C72.0001 57.3391 33.3779 66.5296 33.3779 42.3836C33.3779 31.8981 41.7286 23 59.5575 23C67.3654 23 75.5074 25.047 81.1859 28.765L77.3864 38.1226C71.5408 34.697 65.1525 33.026 59.474 33.026C49.4531 33.026 45.3612 36.9111 45.3612 41.8405C45.3612 55.6681 83.8582 46.6864 83.8582 70.54C83.8582 80.9419 75.4239 89.84 57.5951 89.84C47.4907 89.84 37.3862 86.6651 32 82.0281Z" fill="#58A709"/>
</g>
<defs>
<clipPath id="clip0_137_672">
<rect width="116.19" height="154.92" fill="white"/>
</clipPath>
</defs>
</svg>
