<svg xmlns="http://www.w3.org/2000/svg"
     viewBox="0 0 216 216">
    <g>
        <path
                d="M206.04,13.04c-24.4,13.31-74.86,54.76-115.13,120.67-1.31,2.15-4.11,2.83-6.26,1.53h-.02c-1.11-.69-2.19-1.41-3.26-2.16-13.12-9.27-41.81-25.56-41.81-25.56-1.8-1.01-3.65.34-3.81,2-.06.11-.05.29,0,.53.04.37.18.74.42,1.1,2.4,5.14,13.81,20.76,24.59,35.3,12.07,16.26,22.74,25.51,24.46,26.95.07.06.13.11.2.17.03.02.05.04.05.04,3.25,2.6,8.27,1.8,10.42-2.06,16.4-29.38,69.46-121.19,111.51-156.52,1.12-.95-.07-2.69-1.36-1.99"
                fill="#58A709" stroke-width="0"/>
        <path
                d="M143.9,183.16c0,1.91-1.55,3.45-3.45,3.45H28.09c-1.9,0-3.44-1.54-3.44-3.45v-112.36c0-1.9,1.54-3.44,3.44-3.44h99.08c5.03-5.69,10.18-11.2,15.42-16.51H23.52c-8.49,0-15.38,6.89-15.38,15.38v121.5c0,8.49,6.89,15.38,15.38,15.38h121.51c8.49,0,15.38-6.89,15.38-15.38v-100.92c-5.7,8.22-11.24,16.57-16.51,24.75v71.6"
                fill="#58A709" stroke-width="0"/>
    </g>
</svg>